<svg draggable="false" height="18" alt="logo"
                                                xmlns="http://www.w3.org/2000/svg"
                                                xmlns:xlink="http://www.w3.org/1999/xlink" viewBox="0 0 722.96 278.33">
                                                <defs>
                                                    <linearGradient id="a" x1="348.89" y1="86.46" x2="319.56"
                                                        y2="213.52" gradientUnits="userSpaceOnUse">
                                                        <stop offset="0" stop-color="#0c39fa"></stop>
                                                        <stop offset="1" stop-color="#358cfc"></stop>
                                                    </linearGradient>
                                                    <linearGradient id="b" x1="523.14" y1="108.44" x2="452.77"
                                                        y2="288.27" gradientUnits="userSpaceOnUse">
                                                        <stop offset="0" stop-color="#0c39fa"></stop>
                                                        <stop offset="0.63" stop-color="#358cfc"></stop>
                                                    </linearGradient>
                                                    <linearGradient id="c" x1="704.63" y1="39.84" x2="644.03"
                                                        y2="229.45" xlink:href="#a"></linearGradient>
                                                    <linearGradient id="d" x1="365.25" y1="-94.99" x2="142.41"
                                                        y2="217.77" gradientUnits="userSpaceOnUse">
                                                        <stop offset="0" stop-color="#0c39fa"></stop>
                                                        <stop offset="1" stop-color="#28e8fe"></stop>
                                                    </linearGradient>
                                                    <linearGradient id="e" x1="365.08" y1="-95.12" x2="142.23"
                                                        y2="217.64" xlink:href="#d"></linearGradient>
                                                    <linearGradient id="f" x1="132.46" y1="8.79" x2="126.59" y2="225.77"
                                                        gradientUnits="userSpaceOnUse">
                                                        <stop offset="0.19" stop-color="#0c39fa"></stop>
                                                        <stop offset="0.35" stop-color="#0c60fa"></stop>
                                                        <stop offset="0.52" stop-color="#358cfc"></stop>
                                                    </linearGradient>
                                                    <linearGradient id="g" x1="76.4" y1="59.11" x2="80.31" y2="172.48"
                                                        xlink:href="#d"></linearGradient>
                                                </defs>
                                                <path
                                                    d="M387.8,95l-4.14,9.21c-5.46-9.33-17.19-14.94-31.92-14.94a97.43,97.43,0,0,0-56.8,18.49C278,119.87,264.72,137.24,256.53,158c-8.64,21.88-9.15,40.1-1.47,52.71,7.45,12.21,22,18.67,42.07,18.67h.67c12-.22,29.71-5.13,43.42-15.34l-1.76,5.7a4.48,4.48,0,0,0,4.28,5.79h27a4.47,4.47,0,0,0,4.17-2.85L423.27,98.42a4.48,4.48,0,0,0-4.17-6.1H391.88A4.48,4.48,0,0,0,387.8,95Zm-26.17,63.12a60.59,60.59,0,0,1-18.27,24.71c-9,7.26-19.37,11.1-29.89,11.1-9,0-15.72-2.86-19.4-8.26-4.2-6.17-4.2-15.41,0-26,8.41-21.35,27.95-35.69,48.62-35.69,8.91,0,15.22,2.64,18.77,7.83C365.61,137.86,365.68,147.7,361.63,158.09Z"
                                                    style="fill:url(#a)"></path>
                                                <path
                                                    d="M573.28,107.45c-8-11.57-22.27-18-40.25-18-11.34,0-28,4-43.16,14.8L491.58,98a4.48,4.48,0,0,0-4.32-5.64H460.6a4.48,4.48,0,0,0-4.17,2.86L387.8,272.24a4.47,4.47,0,0,0,4.17,6.09H420.7a4.47,4.47,0,0,0,4.17-2.86l23.05-59.68c8.81,11.78,28.17,12.78,34.39,12.78,39.71,0,76.93-27.63,92.62-68.74C582.84,139.09,582.26,120.49,573.28,107.45Zm-35.89,50.78c-7.28,19-27,33.36-45.91,33.36-8.33,0-14.91-2.89-18.51-8.15-4-5.86-4.25-14.25-.64-23.6,7.58-19.64,26.46-33.36,45.91-33.36,8.75,0,15.26,2.74,18.83,7.93C541,140.1,541.1,148.56,537.39,158.23Z"
                                                    style="fill:url(#b)"></path>
                                                <path
                                                    d="M635.24,181.43,686.79,45.28a4.47,4.47,0,0,0-4.18-6.05h-31a4.43,4.43,0,0,0-4.14,2.85L580.07,219.43a4.47,4.47,0,0,0,4.18,6.06H707.6a4.49,4.49,0,0,0,4.19-2.91l10.88-29.05a4.47,4.47,0,0,0-4.19-6H639.42A4.48,4.48,0,0,1,635.24,181.43Z"
                                                    style="fill:url(#c)"></path>
                                                <path
                                                    d="M277,26h2.09a6.42,6.42,0,0,1,3,.48c.95.56,1.42,1.71,1.42,3.45v1.19l.06.49,0,.17a.57.57,0,0,1,0,.14h2.49l-.1-.18a2.75,2.75,0,0,1-.13-.79c0-.39,0-.77,0-1.12V28.7a4.18,4.18,0,0,0-.82-2.33,3.62,3.62,0,0,0-2.59-1.47,5.66,5.66,0,0,0,2.18-.74,3.27,3.27,0,0,0,1.47-3,3.73,3.73,0,0,0-2.34-3.81,11.24,11.24,0,0,0-4.11-.55h-5.27V31.89H277Zm0-7.32h2.26a6.84,6.84,0,0,1,3.22.56,2.3,2.3,0,0,1,1,2.2,2.33,2.33,0,0,1-1.56,2.36,7.31,7.31,0,0,1-2.53.33H277Z"
                                                    style="fill:url(#d)"></path>
                                                <path
                                                    d="M279.87,38.17a13.21,13.21,0,0,0,9.72-4,13.3,13.3,0,0,0,4-9.74,13.15,13.15,0,0,0-4-9.68,13.71,13.71,0,0,0-23.4,9.68,13.35,13.35,0,0,0,4,9.74A13.15,13.15,0,0,0,279.87,38.17Zm-8.33-22.1a11.75,11.75,0,0,1,16.69,0,11.4,11.4,0,0,1,3.43,8.35,11.52,11.52,0,0,1-3.43,8.41,11.79,11.79,0,0,1-16.71,0,11.55,11.55,0,0,1-3.42-8.41A11.41,11.41,0,0,1,271.54,16.07Z"
                                                    style="fill:url(#e)"></path>
                                                <path
                                                    d="M157,222.82a6.63,6.63,0,0,0,5.16,2.47h53.57a4.48,4.48,0,0,0,3.5-7.26l-33-41.45a4.48,4.48,0,0,1,.64-6.22l33.62-28a2.06,2.06,0,0,0,.27-.23c18.66-15.66,31.4-36.45,35.88-58.54,4.61-22.78,0-44.08-13-60C231.19,8.39,212.42,0,190.79,0H77.23a4.45,4.45,0,0,0-3.84,2.19L1.84,122.83H64.13L.21,229.71,159.94,89.42H74L100,49a4.46,4.46,0,0,1,3.76-2.05h77.84c9.41,0,17.55,3.62,22.92,10.21,5.61,6.87,7.59,16.1,5.56,26a46.12,46.12,0,0,1-15.72,25.64l-64.83,54h.06l-9,7.48a4.6,4.6,0,0,0-.67,6.4Z"
                                                    style="fill:url(#f)"></path>
                                                <path
                                                    d="M159.74,89.42H73.82L99.76,49a4.05,4.05,0,0,1,.56-.68H45.83L1.64,122.83H63.93L0,229.71Z"
                                                    style="fill:url(#g)"></path>
                                            </svg>